# xmcd
#
# Track frame offsets: 
#        150
#        15050
#        30981
#        46592
#        61275
#        74044
#        95629
#        109183
#        132796
#        144119
#        164826
#        179863
#        193729
#        207352
#        222027
#        233105
#        245556
#        264124
#        276426
#        289534
#
# Disc length: 4006 seconds
#
# Revision: 0
# Processed by: cddbd v1.5.2PL0 Copyright (c) Steve Scherf et al.
# Submitted via: ExactAudioCopyFreeDBPlugin 1.0
#
DISCID=250fa414
DTITLE=Frank Sinatra - Come Fly With Me - CD2
DYEAR=2009
DGENRE=Blues
TTITLE0=Come fly with me
TTITLE1=Moonlight in Vermont
TTITLE2=Time after time
TTITLE3=Ebb Tide
TTITLE4=April in Paris
TTITLE5=Willow weep for me
TTITLE6=Folls rush in
TTITLE7=Gone with the Wind
TTITLE8=I believe
TTITLE9=Autunm in New York
TTITLE10=Body and Soul
TTITLE11=I concentrate on You
TTITLE12=Brazil
TTITLE13=Everybody loves somebody
TTITLE14=Could´ja
TTITLE15=Falling in love with You
TTITLE16=Only the lonely
TTITLE17=Sleep warm
TTITLE18=You´ll always be the One I love
TTITLE19=Isle of Capri
EXTD=
EXTT0=
EXTT1=
EXTT2=
EXTT3=
EXTT4=
EXTT5=
EXTT6=
EXTT7=
EXTT8=
EXTT9=
EXTT10=
EXTT11=
EXTT12=
EXTT13=
EXTT14=
EXTT15=
EXTT16=
EXTT17=
EXTT18=
EXTT19=
PLAYORDER=
